<svg xmlns="http://www.w3.org/2000/svg" viewBox="0 0 285.81 362.03"><defs><style>.cls-1{fill:#002db3;}</style></defs><g id="Layer_2" data-name="Layer 2"><g id="Layer_1-2" data-name="Layer 1"><path class="cls-1" d="M284.82,150.81c4.45,42.74-6.41,79.53-25.35,107.08-23.37,33.47-60.2,50.31-100.87,54.54-44,4.58-84-8.88-111.74-37.87C19.55,245.94,5.42,210.92,1.32,171.49c-4.27-41.08,1.43-79,22.85-111C47.36,25.35,83.07,5.69,126.22,1.2c34.44-3.58,64.64.41,91.2,17.78a130.41,130.41,0,0,1,30.1,26.28c2.65,3.18,15.71,19.11,24.23,44.41a147.14,147.14,0,0,1,6.81,30.94c-17.88.85-30.85-3.21-38.42-6.37C218,105,201.21,86.51,198.71,83.54a91.26,91.26,0,0,0-8.14-8.4c-1.32-1.2-2.83-2.46-4.62-3.81-13.2-9.95-30.45-14.45-49.91-12C111.52,61.46,88.9,73.88,77.15,94c-12.58,20.18-14.1,45.93-11.92,70.87,3,24.85,9.74,49.32,26.25,66.9,15.64,17.24,40.33,24.74,64.77,21.78a69.71,69.71,0,0,0,46.32-22.44c12.07-13,17.64-32,18.16-47.19-4.26,2.29-19.33,9.67-37.29,4.93-3.76-1-26-7.35-30.67-25.61a29.12,29.12,0,0,1-.13-13.38l129.54-16.37C283,137.16,284.69,149.57,284.82,150.81Z"/><path class="cls-1" d="M18.69,233.44l169.14,73.44A473.14,473.14,0,0,0,27.86,362,165.15,165.15,0,0,0,36,292.23,164.6,164.6,0,0,0,18.69,233.44Z"/><circle class="cls-1" cx="119.1" cy="107.35" r="14"/></g></g></svg>