<svg xmlns="http://www.w3.org/2000/svg" viewBox="0 0 573.67 409.91"><defs><style>.cls-1,.cls-2{fill:#002db3;}.cls-2{font-size:123.51px;font-family:Manrope-ExtraBold, Manrope;font-weight:800;}.cls-3{letter-spacing:-0.02em;}</style></defs><g id="Layer_2" data-name="Layer 2"><g id="Layer_1-2" data-name="Layer 1"><path class="cls-1" d="M399.48,113.09c3.33,32.06-4.81,59.64-19,80.31-17.52,25.1-45.15,37.72-75.65,40.9-33,3.43-63-6.66-83.79-28.41-20.48-21.46-31.08-47.72-34.15-77.28C183.67,97.8,188,69.36,204,45.35,221.4,19,248.18,4.27,280.54.9c25.83-2.68,48.48.31,68.39,13.33A97.69,97.69,0,0,1,371.5,33.94a105.69,105.69,0,0,1,18.18,33.31,111.05,111.05,0,0,1,5.11,23.19A65.81,65.81,0,0,1,366,85.67c-16.58-6.92-29.19-20.8-31.07-23a65.31,65.31,0,0,0-6.1-6.3c-1-.9-2.13-1.85-3.47-2.86-9.9-7.46-22.83-10.83-37.42-9-18.39,1.6-35.36,10.91-44.17,26-9.43,15.14-10.57,34.45-8.94,53.15,2.25,18.64,7.31,37,19.69,50.17,11.73,12.93,30.24,18.56,48.57,16.34A52.31,52.31,0,0,0,337.8,173.3c9.05-9.75,13.23-24,13.62-35.39-3.2,1.71-14.5,7.25-28,3.7-2.82-.75-19.49-5.51-23-19.21a21.86,21.86,0,0,1-.1-10l97.15-12.28C398.1,102.86,399.38,112.16,399.48,113.09Z"/><path class="cls-1" d="M199.91,175.06l126.84,55.07a355.29,355.29,0,0,0-120,41.36,123.16,123.16,0,0,0-6.87-96.43Z"/><text class="cls-2" transform="translate(0 371.32)">G<tspan class="cls-3" x="97.91" y="0">e</tspan><tspan x="174.2" y="0">nlingo</tspan></text><circle class="cls-1" cx="275.2" cy="80.5" r="10.5"/></g></g></svg>